{
  "streams": [
    {
      "index": 0,
      "codec_name": "mpeg2video",
      "codec_long_name": "MPEG-2 video",
      "profile": "Main",
      "codec_type": "video",
      "codec_tag_string": "[2][0][0][0]",
      "codec_tag": "0x0002",
      "width": 1440,
      "height": 1080,
      "coded_width": 0,
      "coded_height": 0,
      "closed_captions": 0,
      "film_grain": 0,
      "has_b_frames": 1,
      "sample_aspect_ratio": "4:3",
      "display_aspect_ratio": "16:9",
      "pix_fmt": "yuv420p",
      "level": 4,
      "color_range": "tv",
      "color_space": "bt709",
      "color_transfer": "bt709",
      "color_primaries": "bt709",
      "chroma_location": "left",
      "field_order": "tt",
      "refs": 1,
      "ts_id": "32737",
      "ts_packetsize": "188",
      "id": "0x100",
      "r_frame_rate": "30000/1001",
      "avg_frame_rate": "30000/1001",
      "time_base": "1/90000",
      "start_pts": 5642424949,
      "start_time": "62693.610544",
      "duration_ts": 135954819,
      "duration": "1510.609100",
      "extradata_size": 162,
      "disposition": {
        "default": 0,
        "dub": 0,
        "original": 0,
        "comment": 0,
        "lyrics": 0,
        "karaoke": 0,
        "forced": 0,
        "hearing_impaired": 0,
        "visual_impaired": 0,
        "clean_effects": 0,
        "attached_pic": 0,
        "timed_thumbnails": 0,
        "non_diegetic": 0,
        "captions": 0,
        "descriptions": 0,
        "metadata": 0,
        "dependent": 0,
        "still_image": 0,
        "multilayer": 0
      },
      "side_data_list": [
        {
          "side_data_type": "CPB properties",
          "max_bitrate": 20000000,
          "min_bitrate": 0,
          "avg_bitrate": 0,
          "buffer_size": 9781248,
          "vbv_delay": -1
        }
      ]
    },
    {
      "index": 1,
      "codec_name": "aac",
      "codec_long_name": "AAC (Advanced Audio Coding)",
      "profile": "LC",
      "codec_type": "audio",
      "codec_tag_string": "[15][0][0][0]",
      "codec_tag": "0x000f",
      "sample_fmt": "fltp",
      "sample_rate": "48000",
      "channels": 2,
      "channel_layout": "stereo",
      "bits_per_sample": 0,
      "initial_padding": 0,
      "ts_id": "32737",
      "ts_packetsize": "188",
      "id": "0x110",
      "r_frame_rate": "0/0",
      "avg_frame_rate": "0/0",
      "time_base": "1/90000",
      "start_pts": 5642412407,
      "start_time": "62693.471189",
      "duration_ts": 135955200,
      "duration": "1510.613333",
      "bit_rate": "255751",
      "disposition": {
        "default": 0,
        "dub": 0,
        "original": 0,
        "comment": 0,
        "lyrics": 0,
        "karaoke": 0,
        "forced": 0,
        "hearing_impaired": 0,
        "visual_impaired": 0,
        "clean_effects": 0,
        "attached_pic": 0,
        "timed_thumbnails": 0,
        "non_diegetic": 0,
        "captions": 0,
        "descriptions": 0,
        "metadata": 0,
        "dependent": 0,
        "still_image": 0,
        "multilayer": 0
      }
    },
    {
      "index": 2,
      "codec_name": "arib_caption",
      "codec_long_name": "ARIB STD-B24 caption",
      "profile": "Profile A",
      "codec_type": "subtitle",
      "codec_tag_string": "[6][0][0][0]",
      "codec_tag": "0x0006",
      "ts_id": "32737",
      "ts_packetsize": "188",
      "id": "0x130",
      "r_frame_rate": "0/0",
      "avg_frame_rate": "0/0",
      "time_base": "1/90000",
      "start_pts": 5642450517,
      "start_time": "62693.894633",
      "disposition": {
        "default": 0,
        "dub": 0,
        "original": 0,
        "comment": 0,
        "lyrics": 0,
        "karaoke": 0,
        "forced": 0,
        "hearing_impaired": 0,
        "visual_impaired": 0,
        "clean_effects": 0,
        "attached_pic": 0,
        "timed_thumbnails": 0,
        "non_diegetic": 0,
        "captions": 0,
        "descriptions": 0,
        "metadata": 0,
        "dependent": 0,
        "still_image": 0,
        "multilayer": 0
      }
    },
    {
      "index": 3,
      "codec_name": "bin_data",
      "codec_long_name": "binary data",
      "codec_type": "data",
      "codec_tag_string": "[6][0][0][0]",
      "codec_tag": "0x0006",
      "ts_id": "32737",
      "ts_packetsize": "188",
      "id": "0x138",
      "r_frame_rate": "0/0",
      "avg_frame_rate": "0/0",
      "time_base": "1/90000",
      "start_pts": 5642412407,
      "start_time": "62693.471189",
      "duration_ts": 135967361,
      "duration": "1510.748456",
      "disposition": {
        "default": 0,
        "dub": 0,
        "original": 0,
        "comment": 0,
        "lyrics": 0,
        "karaoke": 0,
        "forced": 0,
        "hearing_impaired": 0,
        "visual_impaired": 0,
        "clean_effects": 0,
        "attached_pic": 0,
        "timed_thumbnails": 0,
        "non_diegetic": 0,
        "captions": 0,
        "descriptions": 0,
        "metadata": 0,
        "dependent": 0,
        "still_image": 0,
        "multilayer": 0
      }
    },
    {
      "index": 4,
      "codec_tag_string": "[13][0][0][0]",
      "codec_tag": "0x000d",
      "ts_id": "32737",
      "ts_packetsize": "188",
      "id": "0x140",
      "r_frame_rate": "0/0",
      "avg_frame_rate": "0/0",
      "time_base": "1/90000",
      "start_pts": 5642412407,
      "start_time": "62693.471189",
      "duration_ts": 135967361,
      "duration": "1510.748456",
      "disposition": {
        "default": 0,
        "dub": 0,
        "original": 0,
        "comment": 0,
        "lyrics": 0,
        "karaoke": 0,
        "forced": 0,
        "hearing_impaired": 0,
        "visual_impaired": 0,
        "clean_effects": 0,
        "attached_pic": 0,
        "timed_thumbnails": 0,
        "non_diegetic": 0,
        "captions": 0,
        "descriptions": 0,
        "metadata": 0,
        "dependent": 0,
        "still_image": 0,
        "multilayer": 0
      }
    },
    {
      "index": 5,
      "codec_tag_string": "[13][0][0][0]",
      "codec_tag": "0x000d",
      "ts_id": "32737",
      "ts_packetsize": "188",
      "id": "0x160",
      "r_frame_rate": "0/0",
      "avg_frame_rate": "0/0",
      "time_base": "1/90000",
      "start_pts": 5642412407,
      "start_time": "62693.471189",
      "duration_ts": 135967361,
      "duration": "1510.748456",
      "disposition": {
        "default": 0,
        "dub": 0,
        "original": 0,
        "comment": 0,
        "lyrics": 0,
        "karaoke": 0,
        "forced": 0,
        "hearing_impaired": 0,
        "visual_impaired": 0,
        "clean_effects": 0,
        "attached_pic": 0,
        "timed_thumbnails": 0,
        "non_diegetic": 0,
        "captions": 0,
        "descriptions": 0,
        "metadata": 0,
        "dependent": 0,
        "still_image": 0,
        "multilayer": 0
      }
    },
    {
      "index": 6,
      "codec_tag_string": "[13][0][0][0]",
      "codec_tag": "0x000d",
      "ts_id": "32737",
      "ts_packetsize": "188",
      "id": "0x161",
      "r_frame_rate": "0/0",
      "avg_frame_rate": "0/0",
      "time_base": "1/90000",
      "start_pts": 5642412407,
      "start_time": "62693.471189",
      "duration_ts": 135967361,
      "duration": "1510.748456",
      "disposition": {
        "default": 0,
        "dub": 0,
        "original": 0,
        "comment": 0,
        "lyrics": 0,
        "karaoke": 0,
        "forced": 0,
        "hearing_impaired": 0,
        "visual_impaired": 0,
        "clean_effects": 0,
        "attached_pic": 0,
        "timed_thumbnails": 0,
        "non_diegetic": 0,
        "captions": 0,
        "descriptions": 0,
        "metadata": 0,
        "dependent": 0,
        "still_image": 0,
        "multilayer": 0
      }
    },
    {
      "index": 7,
      "codec_tag_string": "[13][0][0][0]",
      "codec_tag": "0x000d",
      "ts_id": "32737",
      "ts_packetsize": "188",
      "id": "0x162",
      "r_frame_rate": "0/0",
      "avg_frame_rate": "0/0",
      "time_base": "1/90000",
      "start_pts": 5642412407,
      "start_time": "62693.471189",
      "duration_ts": 135967361,
      "duration": "1510.748456",
      "disposition": {
        "default": 0,
        "dub": 0,
        "original": 0,
        "comment": 0,
        "lyrics": 0,
        "karaoke": 0,
        "forced": 0,
        "hearing_impaired": 0,
        "visual_impaired": 0,
        "clean_effects": 0,
        "attached_pic": 0,
        "timed_thumbnails": 0,
        "non_diegetic": 0,
        "captions": 0,
        "descriptions": 0,
        "metadata": 0,
        "dependent": 0,
        "still_image": 0,
        "multilayer": 0
      }
    },
    {
      "index": 8,
      "codec_tag_string": "[13][0][0][0]",
      "codec_tag": "0x000d",
      "ts_id": "32737",
      "ts_packetsize": "188",
      "id": "0x163",
      "r_frame_rate": "0/0",
      "avg_frame_rate": "0/0",
      "time_base": "1/90000",
      "start_pts": 5642412407,
      "start_time": "62693.471189",
      "duration_ts": 135967361,
      "duration": "1510.748456",
      "disposition": {
        "default": 0,
        "dub": 0,
        "original": 0,
        "comment": 0,
        "lyrics": 0,
        "karaoke": 0,
        "forced": 0,
        "hearing_impaired": 0,
        "visual_impaired": 0,
        "clean_effects": 0,
        "attached_pic": 0,
        "timed_thumbnails": 0,
        "non_diegetic": 0,
        "captions": 0,
        "descriptions": 0,
        "metadata": 0,
        "dependent": 0,
        "still_image": 0,
        "multilayer": 0
      }
    },
    {
      "index": 9,
      "codec_tag_string": "[13][0][0][0]",
      "codec_tag": "0x000d",
      "ts_id": "32737",
      "ts_packetsize": "188",
      "id": "0x164",
      "r_frame_rate": "0/0",
      "avg_frame_rate": "0/0",
      "time_base": "1/90000",
      "start_pts": 5642412407,
      "start_time": "62693.471189",
      "duration_ts": 135967361,
      "duration": "1510.748456",
      "disposition": {
        "default": 0,
        "dub": 0,
        "original": 0,
        "comment": 0,
        "lyrics": 0,
        "karaoke": 0,
        "forced": 0,
        "hearing_impaired": 0,
        "visual_impaired": 0,
        "clean_effects": 0,
        "attached_pic": 0,
        "timed_thumbnails": 0,
        "non_diegetic": 0,
        "captions": 0,
        "descriptions": 0,
        "metadata": 0,
        "dependent": 0,
        "still_image": 0,
        "multilayer": 0
      }
    },
    {
      "index": 10,
      "codec_tag_string": "[13][0][0][0]",
      "codec_tag": "0x000d",
      "ts_id": "32737",
      "ts_packetsize": "188",
      "id": "0x165",
      "r_frame_rate": "0/0",
      "avg_frame_rate": "0/0",
      "time_base": "1/90000",
      "start_pts": 5642412407,
      "start_time": "62693.471189",
      "duration_ts": 135967361,
      "duration": "1510.748456",
      "disposition": {
        "default": 0,
        "dub": 0,
        "original": 0,
        "comment": 0,
        "lyrics": 0,
        "karaoke": 0,
        "forced": 0,
        "hearing_impaired": 0,
        "visual_impaired": 0,
        "clean_effects": 0,
        "attached_pic": 0,
        "timed_thumbnails": 0,
        "non_diegetic": 0,
        "captions": 0,
        "descriptions": 0,
        "metadata": 0,
        "dependent": 0,
        "still_image": 0,
        "multilayer": 0
      }
    },
    {
      "index": 11,
      "codec_name": "epg",
      "codec_long_name": "Electronic Program Guide",
      "codec_type": "data",
      "codec_tag_string": "[0][0][0][0]",
      "codec_tag": "0x0000",
      "ts_id": "32737",
      "ts_packetsize": "188",
      "id": "0x12",
      "r_frame_rate": "0/0",
      "avg_frame_rate": "0/0",
      "time_base": "1/90000",
      "start_pts": 5642412407,
      "start_time": "62693.471189",
      "duration_ts": 135967361,
      "duration": "1510.748456",
      "disposition": {
        "default": 0,
        "dub": 0,
        "original": 0,
        "comment": 0,
        "lyrics": 0,
        "karaoke": 0,
        "forced": 0,
        "hearing_impaired": 0,
        "visual_impaired": 0,
        "clean_effects": 0,
        "attached_pic": 0,
        "timed_thumbnails": 0,
        "non_diegetic": 0,
        "captions": 0,
        "descriptions": 0,
        "metadata": 0,
        "dependent": 0,
        "still_image": 0,
        "multilayer": 0
      }
    }
  ],
  "format": {
    "filename": "46236",
    "nb_streams": 12,
    "nb_programs": 4,
    "nb_stream_groups": 0,
    "format_name": "mpegts",
    "format_long_name": "MPEG-TS (MPEG-2 Transport Stream)",
    "start_time": "62693.471189",
    "duration": "1510.748455",
    "size": "2534974328",
    "bit_rate": "13423673",
    "probe_score": 50
  }
}
